# xmcd CD database file
#
# Track frame offsets:
#	150
#	25095
#	48660
#	70214
#	110330
#	133353
#	156887
#	182168
#
# Disc length: 2834 seconds
#
# Revision: 0
# Processed by: cddbd v1.5.2PL0 Copyright (c) Steve Scherf et al.
# Submitted via: CDex 1.99.1
#
DISCID=700b1008
DTITLE=Jim Kimsey - PerXactly!
DYEAR=2003
DGENRE=Jazz
TTITLE0=PerXactly!
TTITLE1=Rampart St. Rhumba
TTITLE2=Puo Dirmi
TTITLE3=Now What Is It
TTITLE4=Ndkrebn
TTITLE5=Mambo Jimbo
TTITLE6=Without You
TTITLE7=Second Line Thang
EXTD=YEAR: 2003
EXTT0=
EXTT1=
EXTT2=
EXTT3=
EXTT4=
EXTT5=
EXTT6=
EXTT7=
PLAYORDER=
